<svg width="493" height="80" viewBox="0 0 493 80" fill="none" xmlns="http://www.w3.org/2000/svg">
<g filter="url(#filter0_d)">
<path d="M75.75 70H64.875V22H64.5469L45 69.4375H36.75L17.2031 22H16.875V70H5.95312V2.35938H19.9688L40.6875 53.4062H41.0625L61.7812 2.35938H75.75V70ZM103.453 61.9844C106.797 61.9844 109.609 61 111.891 59.0312C114.203 57.0312 115.359 54.5469 115.359 51.5781V47.7812L103.875 48.4844C101.062 48.6719 98.875 49.375 97.3125 50.5938C95.7812 51.7812 95.0156 53.3594 95.0156 55.3281C95.0156 57.3594 95.7812 58.9844 97.3125 60.2031C98.875 61.3906 100.922 61.9844 103.453 61.9844ZM99.9375 70.7969C95.0938 70.7969 91.1094 69.4062 87.9844 66.625C84.8906 63.8438 83.3438 60.2344 83.3438 55.7969C83.3438 51.3906 84.9688 47.9062 88.2188 45.3438C91.5 42.7812 96.1719 41.3125 102.234 40.9375L115.359 40.1875V36.625C115.359 34.0312 114.531 32.0156 112.875 30.5781C111.25 29.1406 108.984 28.4219 106.078 28.4219C103.359 28.4219 101.141 29.0312 99.4219 30.25C97.7031 31.4688 96.6562 33.125 96.2812 35.2188H85.4531C85.7031 30.5 87.7188 26.6719 91.5 23.7344C95.3125 20.7656 100.328 19.2812 106.547 19.2812C112.703 19.2812 117.625 20.7812 121.312 23.7812C125.031 26.7812 126.891 30.7812 126.891 35.7812V70H115.641V62.0781H115.406C114 64.7344 111.875 66.8594 109.031 68.4531C106.188 70.0156 103.156 70.7969 99.9375 70.7969ZM179.859 20.3125L162.375 70H149.531L131.906 20.3125H144.375L155.906 59.1719H156.141L167.672 20.3125H179.859ZM185.531 70V20.3125H197.203V70H185.531ZM195.938 11.9688C194.688 13.1875 193.156 13.7969 191.344 13.7969C189.531 13.7969 188 13.1875 186.75 11.9688C185.5 10.7187 184.875 9.21875 184.875 7.46875C184.875 5.6875 185.5 4.1875 186.75 2.96875C188 1.71875 189.531 1.09375 191.344 1.09375C193.156 1.09375 194.688 1.71875 195.938 2.96875C197.219 4.1875 197.859 5.6875 197.859 7.46875C197.859 9.21875 197.219 10.7187 195.938 11.9688ZM250.781 38.0312H239.766C239.266 35.25 238.078 33.0156 236.203 31.3281C234.328 29.6094 231.891 28.75 228.891 28.75C225.203 28.75 222.266 30.2188 220.078 33.1562C217.891 36.0625 216.797 40.0625 216.797 45.1562C216.797 50.3125 217.891 54.3438 220.078 57.25C222.266 60.125 225.234 61.5625 228.984 61.5625C231.922 61.5625 234.328 60.7812 236.203 59.2188C238.078 57.625 239.281 55.4062 239.812 52.5625H250.828C250.359 58.125 248.125 62.5938 244.125 65.9688C240.156 69.3125 235.062 70.9844 228.844 70.9844C221.531 70.9844 215.719 68.6875 211.406 64.0938C207.094 59.4688 204.938 53.1562 204.938 45.1562C204.938 37.25 207.094 30.9688 211.406 26.3125C215.719 21.625 221.5 19.2812 228.75 19.2812C235.125 19.2812 240.281 21.0625 244.219 24.625C248.188 28.1562 250.375 32.625 250.781 38.0312ZM276.609 22.4219C276.609 16.1719 278.859 11.0469 283.359 7.04688C287.859 3.01562 293.609 1 300.609 1C307.328 1 312.859 2.82812 317.203 6.48438C321.578 10.1406 323.766 14.7188 323.766 20.2188C323.766 24 322.703 27.5781 320.578 30.9531C318.484 34.2969 315 38.4219 310.125 43.3281L293.391 59.875V60.1094H324.797V70H277.266V61.8438L302.156 37.0938C306 33.1562 308.594 30.0781 309.938 27.8594C311.281 25.6406 311.953 23.2656 311.953 20.7344C311.953 17.9219 310.828 15.5469 308.578 13.6094C306.359 11.6719 303.578 10.7031 300.234 10.7031C296.703 10.7031 293.766 11.8125 291.422 14.0312C289.109 16.25 287.953 19.0312 287.953 22.375V22.5625H276.609V22.4219ZM354.047 2.35938H380.344C387.094 2.35938 392.578 4.45313 396.797 8.64062C401.016 12.7969 403.125 18.25 403.125 25C403.125 31.7188 400.953 37.1719 396.609 41.3594C392.297 45.5469 386.703 47.6406 379.828 47.6406H366.141V70H354.047V2.35938ZM366.141 12.25V37.8906H377.109C381.453 37.8906 384.828 36.7656 387.234 34.5156C389.641 32.2656 390.844 29.0938 390.844 25C390.844 20.9375 389.641 17.7969 387.234 15.5781C384.859 13.3594 381.5 12.25 377.156 12.25H366.141ZM410.812 70V20.3125H422.016V28.9844H422.25C423.094 25.9531 424.547 23.6094 426.609 21.9531C428.703 20.2969 431.219 19.4688 434.156 19.4688C435.188 19.4688 436.406 19.625 437.812 19.9375V30.4844C436.656 30.0469 435.078 29.8281 433.078 29.8281C429.766 29.8281 427.172 30.8281 425.297 32.8281C423.422 34.8281 422.484 37.5781 422.484 41.0781V70H410.812ZM481.453 64.0938C477.109 68.6875 471.266 70.9844 463.922 70.9844C456.578 70.9844 450.734 68.6875 446.391 64.0938C442.047 59.4688 439.875 53.1562 439.875 45.1562C439.875 37.1875 442.062 30.8906 446.438 26.2656C450.812 21.6094 456.641 19.2812 463.922 19.2812C471.234 19.2812 477.062 21.6094 481.406 26.2656C485.781 30.8906 487.969 37.1875 487.969 45.1562C487.969 53.1562 485.797 59.4688 481.453 64.0938ZM455.016 57.3906C457.203 60.2969 460.172 61.75 463.922 61.75C467.672 61.75 470.641 60.2969 472.828 57.3906C475.016 54.4844 476.109 50.4062 476.109 45.1562C476.109 39.9375 475.016 35.875 472.828 32.9688C470.641 30.0312 467.672 28.5625 463.922 28.5625C460.203 28.5625 457.234 30.0312 455.016 32.9688C452.828 35.875 451.734 39.9375 451.734 45.1562C451.734 50.4062 452.828 54.4844 455.016 57.3906Z" fill="white"/>
<path d="M75.75 70V71H76.75V70H75.75ZM64.875 70H63.875V71H64.875V70ZM64.875 22H65.875V21H64.875V22ZM64.5469 22V21H63.8774L63.6223 21.619L64.5469 22ZM45 69.4375V70.4375H45.6695L45.9246 69.8185L45 69.4375ZM36.75 69.4375L35.8254 69.8185L36.0805 70.4375H36.75V69.4375ZM17.2031 22L18.1277 21.619L17.8726 21H17.2031V22ZM16.875 22V21H15.875V22H16.875ZM16.875 70V71H17.875V70H16.875ZM5.95312 70H4.95312V71H5.95312V70ZM5.95312 2.35938V1.35938H4.95312V2.35938H5.95312ZM19.9688 2.35938L20.8953 1.98329L20.6421 1.35938H19.9688V2.35938ZM40.6875 53.4062L39.7609 53.7823L40.0141 54.4062H40.6875V53.4062ZM41.0625 53.4062V54.4062H41.7359L41.9891 53.7823L41.0625 53.4062ZM61.7812 2.35938V1.35938H61.1079L60.8547 1.98329L61.7812 2.35938ZM75.75 2.35938H76.75V1.35938H75.75V2.35938ZM75.75 69H64.875V71H75.75V69ZM65.875 70V22H63.875V70H65.875ZM64.875 21H64.5469V23H64.875V21ZM63.6223 21.619L44.0754 69.0565L45.9246 69.8185L65.4715 22.381L63.6223 21.619ZM45 68.4375H36.75V70.4375H45V68.4375ZM37.6746 69.0565L18.1277 21.619L16.2785 22.381L35.8254 69.8185L37.6746 69.0565ZM17.2031 21H16.875V23H17.2031V21ZM15.875 22V70H17.875V22H15.875ZM16.875 69H5.95312V71H16.875V69ZM6.95312 70V2.35938H4.95312V70H6.95312ZM5.95312 3.35938H19.9688V1.35938H5.95312V3.35938ZM19.0422 2.73546L39.7609 53.7823L41.6141 53.0302L20.8953 1.98329L19.0422 2.73546ZM40.6875 54.4062H41.0625V52.4062H40.6875V54.4062ZM41.9891 53.7823L62.7078 2.73546L60.8547 1.98329L40.1359 53.0302L41.9891 53.7823ZM61.7812 3.35938H75.75V1.35938H61.7812V3.35938ZM74.75 2.35938V70H76.75V2.35938H74.75ZM111.891 59.0312L112.544 59.7883L112.545 59.7876L111.891 59.0312ZM115.359 47.7812H116.359V46.7182L115.298 46.7831L115.359 47.7812ZM103.875 48.4844L103.814 47.4862L103.808 47.4866L103.875 48.4844ZM97.3125 50.5938L97.9253 51.384L97.9275 51.3823L97.3125 50.5938ZM97.3125 60.2031L96.6898 60.9855L96.6985 60.9925L96.7074 60.9993L97.3125 60.2031ZM87.9844 66.625L87.3158 67.3687L87.3195 67.372L87.9844 66.625ZM88.2188 45.3438L87.6032 44.5556L87.5996 44.5585L88.2188 45.3438ZM102.234 40.9375L102.177 39.9391L102.173 39.9394L102.234 40.9375ZM115.359 40.1875L115.416 41.1859L116.359 41.132V40.1875H115.359ZM112.875 30.5781L112.212 31.3272L112.22 31.3333L112.875 30.5781ZM96.2812 35.2188V36.2188H97.1181L97.2656 35.395L96.2812 35.2188ZM85.4531 35.2188L84.4545 35.1658L84.3987 36.2188H85.4531V35.2188ZM91.5 23.7344L92.1135 24.5241L92.1144 24.5234L91.5 23.7344ZM121.312 23.7812L120.681 24.557L120.685 24.5596L121.312 23.7812ZM126.891 70V71H127.891V70H126.891ZM115.641 70H114.641V71H115.641V70ZM115.641 62.0781H116.641V61.0781H115.641V62.0781ZM115.406 62.0781V61.0781H114.804L114.522 61.6102L115.406 62.0781ZM109.031 68.4531L109.513 69.3296L109.52 69.3255L109.031 68.4531ZM103.453 62.9844C107.009 62.9844 110.061 61.9313 112.544 59.7883L111.237 58.2742C109.158 60.0687 106.585 60.9844 103.453 60.9844V62.9844ZM112.545 59.7876C115.069 57.6042 116.359 54.847 116.359 51.5781H114.359C114.359 54.2467 113.337 56.4583 111.236 58.2749L112.545 59.7876ZM116.359 51.5781V47.7812H114.359V51.5781H116.359ZM115.298 46.7831L103.814 47.4862L103.936 49.4825L115.42 48.7794L115.298 46.7831ZM103.808 47.4866C100.877 47.682 98.4714 48.4216 96.6975 49.8052L97.9275 51.3823C99.2786 50.3284 101.248 49.6617 103.942 49.4822L103.808 47.4866ZM96.6997 49.8035C94.9196 51.184 94.0156 53.0561 94.0156 55.3281H96.0156C96.0156 53.6627 96.6429 52.3785 97.9253 51.384L96.6997 49.8035ZM94.0156 55.3281C94.0156 57.6506 94.9098 59.5689 96.6898 60.9855L97.9352 59.4207C96.6527 58.3999 96.0156 57.0681 96.0156 55.3281H94.0156ZM96.7074 60.9993C98.4886 62.353 100.767 62.9844 103.453 62.9844V60.9844C101.077 60.9844 99.2614 60.4283 97.9176 59.407L96.7074 60.9993ZM99.9375 69.7969C95.2977 69.7969 91.5625 68.4709 88.6492 65.878L87.3195 67.372C90.6562 70.3416 94.8898 71.7969 99.9375 71.7969V69.7969ZM88.6529 65.8813C85.7855 63.3035 84.3438 59.972 84.3438 55.7969H82.3438C82.3438 60.4967 83.9958 64.384 87.3158 67.3687L88.6529 65.8813ZM84.3438 55.7969C84.3438 51.674 85.8458 48.4882 88.8379 46.129L87.5996 44.5585C84.0917 47.3243 82.3438 51.1072 82.3438 55.7969H84.3438ZM88.8342 46.1319C91.8987 43.7387 96.3472 42.3036 102.296 41.9356L102.173 39.9394C95.9966 40.3214 91.1013 41.8238 87.6033 44.5556L88.8342 46.1319ZM102.291 41.9359L115.416 41.1859L115.302 39.1891L102.177 39.9391L102.291 41.9359ZM116.359 40.1875V36.625H114.359V40.1875H116.359ZM116.359 36.625C116.359 33.7997 115.446 31.4855 113.53 29.8229L112.22 31.3333C113.616 32.5458 114.359 34.2628 114.359 36.625H116.359ZM113.538 29.8291C111.675 28.1818 109.145 27.4219 106.078 27.4219V29.4219C108.824 29.4219 110.825 30.0995 112.212 31.3271L113.538 29.8291ZM106.078 27.4219C103.212 27.4219 100.774 28.065 98.8434 29.4343L100 31.0657C101.507 29.9975 103.507 29.4219 106.078 29.4219V27.4219ZM98.8434 29.4343C96.9085 30.8063 95.7177 32.6933 95.2969 35.0425L97.2656 35.395C97.5948 33.5567 98.4977 32.1312 100 31.0657L98.8434 29.4343ZM96.2812 34.2188H85.4531V36.2188H96.2812V34.2188ZM86.4517 35.2717C86.6861 30.8472 88.558 27.2862 92.1135 24.5241L90.8865 22.9447C86.8795 26.0575 84.7201 30.1528 84.4545 35.1658L86.4517 35.2717ZM92.1144 24.5234C95.7064 21.7263 100.486 20.2812 106.547 20.2812V18.2812C100.17 18.2812 94.9186 19.8049 90.8856 22.9454L92.1144 24.5234ZM106.547 20.2812C112.542 20.2812 117.219 21.7402 120.681 24.557L121.944 23.0055C118.031 19.8223 112.864 18.2812 106.547 18.2812V20.2812ZM120.685 24.5596C124.156 27.3598 125.891 31.0674 125.891 35.7812H127.891C127.891 30.4951 125.907 26.2027 121.94 23.0029L120.685 24.5596ZM125.891 35.7812V70H127.891V35.7812H125.891ZM126.891 69H115.641V71H126.891V69ZM116.641 70V62.0781H114.641V70H116.641ZM115.641 61.0781H115.406V63.0781H115.641V61.0781ZM114.522 61.6102C113.214 64.0821 111.233 66.0728 108.542 67.5808L109.52 69.3255C112.517 67.646 114.786 65.3866 116.29 62.546L114.522 61.6102ZM108.55 67.5767C105.852 69.0588 102.986 69.7969 99.9375 69.7969V71.7969C103.326 71.7969 106.523 70.9724 109.513 69.3295L108.55 67.5767ZM179.859 20.3125L180.803 20.6444L181.271 19.3125H179.859V20.3125ZM162.375 70V71H163.083L163.318 70.3319L162.375 70ZM149.531 70L148.589 70.3343L148.825 71H149.531V70ZM131.906 20.3125V19.3125H130.49L130.964 20.6468L131.906 20.3125ZM144.375 20.3125L145.334 20.028L145.121 19.3125H144.375V20.3125ZM155.906 59.1719L154.948 59.4564L155.16 60.1719H155.906V59.1719ZM156.141 59.1719V60.1719H156.887L157.099 59.4564L156.141 59.1719ZM167.672 20.3125V19.3125H166.926L166.713 20.028L167.672 20.3125ZM178.916 19.9806L161.432 69.6681L163.318 70.3319L180.803 20.6444L178.916 19.9806ZM162.375 69H149.531V71H162.375V69ZM150.474 69.6657L132.849 19.9782L130.964 20.6468L148.589 70.3343L150.474 69.6657ZM131.906 21.3125H144.375V19.3125H131.906V21.3125ZM143.416 20.597L154.948 59.4564L156.865 58.8874L145.334 20.028L143.416 20.597ZM155.906 60.1719H156.141V58.1719H155.906V60.1719ZM157.099 59.4564L168.631 20.597L166.713 20.028L155.182 58.8874L157.099 59.4564ZM167.672 21.3125H179.859V19.3125H167.672V21.3125ZM185.531 70H184.531V71H185.531V70ZM185.531 20.3125V19.3125H184.531V20.3125H185.531ZM197.203 20.3125H198.203V19.3125H197.203V20.3125ZM197.203 70V71H198.203V70H197.203ZM195.938 11.9688L196.636 12.6848L196.636 12.6845L195.938 11.9688ZM186.75 11.9688L186.043 12.6759L186.052 12.6848L186.75 11.9688ZM186.75 2.96875L187.448 3.68481L187.457 3.67586L186.75 2.96875ZM195.938 2.96875L195.23 3.67586L195.239 3.68469L195.248 3.69331L195.938 2.96875ZM186.531 70V20.3125H184.531V70H186.531ZM185.531 21.3125H197.203V19.3125H185.531V21.3125ZM196.203 20.3125V70H198.203V20.3125H196.203ZM197.203 69H185.531V71H197.203V69ZM195.239 11.2527C194.184 12.2818 192.906 12.7969 191.344 12.7969V14.7969C193.406 14.7969 195.191 14.0932 196.636 12.6848L195.239 11.2527ZM191.344 12.7969C189.781 12.7969 188.504 12.2818 187.448 11.2527L186.052 12.6848C187.496 14.0932 189.281 14.7969 191.344 14.7969V12.7969ZM187.457 11.2616C186.393 10.197 185.875 8.95052 185.875 7.46875H183.875C183.875 9.48698 184.607 11.2405 186.043 12.6759L187.457 11.2616ZM185.875 7.46875C185.875 5.95094 186.396 4.71103 187.448 3.68475L186.052 2.25275C184.604 3.66397 183.875 5.42406 183.875 7.46875H185.875ZM187.457 3.67586C188.514 2.61864 189.789 2.09375 191.344 2.09375V0.09375C189.274 0.09375 187.486 0.818859 186.043 2.26164L187.457 3.67586ZM191.344 2.09375C192.899 2.09375 194.173 2.61864 195.23 3.67586L196.645 2.26164C195.202 0.818859 193.414 0.09375 191.344 0.09375V2.09375ZM195.248 3.69331C196.329 4.72173 196.859 5.95912 196.859 7.46875H198.859C198.859 5.41588 198.108 3.65327 196.627 2.24419L195.248 3.69331ZM196.859 7.46875C196.859 8.9424 196.332 10.1863 195.239 11.253L196.636 12.6845C198.105 11.2512 198.859 9.4951 198.859 7.46875H196.859ZM250.781 38.0312V39.0312H251.859L251.778 37.9563L250.781 38.0312ZM239.766 38.0312L238.781 38.2082L238.929 39.0312H239.766V38.0312ZM236.203 31.3281L235.527 32.0653L235.534 32.0714L236.203 31.3281ZM220.078 33.1562L220.877 33.7576L220.88 33.7535L220.078 33.1562ZM220.078 57.25L219.279 57.8514L219.282 57.8555L220.078 57.25ZM236.203 59.2188L236.843 59.987L236.851 59.9807L236.203 59.2188ZM239.812 52.5625V51.5625H238.982L238.83 52.3789L239.812 52.5625ZM250.828 52.5625L251.825 52.6465L251.916 51.5625H250.828V52.5625ZM244.125 65.9688L244.769 66.7335L244.77 66.733L244.125 65.9688ZM211.406 64.0938L210.675 64.7757L210.677 64.7782L211.406 64.0938ZM211.406 26.3125L212.14 26.992L212.142 26.9896L211.406 26.3125ZM244.219 24.625L243.548 25.3666L243.554 25.3721L244.219 24.625ZM250.781 37.0312H239.766V39.0312H250.781V37.0312ZM240.75 37.8543C240.216 34.8822 238.932 32.4387 236.872 30.5848L235.534 32.0714C237.224 33.5926 238.316 35.6178 238.781 38.2082L240.75 37.8543ZM236.879 30.591C234.787 28.6735 232.093 27.75 228.891 27.75V29.75C231.688 29.75 233.869 30.5453 235.527 32.0653L236.879 30.591ZM228.891 27.75C224.89 27.75 221.654 29.366 219.276 32.559L220.88 33.7535C222.877 31.0715 225.517 29.75 228.891 29.75V27.75ZM219.279 32.5549C216.918 35.6918 215.797 39.9303 215.797 45.1562H217.797C217.797 40.1947 218.863 36.4332 220.877 33.7576L219.279 32.5549ZM215.797 45.1562C215.797 50.4414 216.917 54.7126 219.279 57.8514L220.877 56.6486C218.865 53.9749 217.797 50.1836 217.797 45.1562H215.797ZM219.282 57.8555C221.667 60.9899 224.936 62.5625 228.984 62.5625V60.5625C225.533 60.5625 222.864 59.2601 220.874 56.6445L219.282 57.8555ZM228.984 62.5625C232.106 62.5625 234.754 61.7282 236.843 59.987L235.563 58.4505C233.902 59.8343 231.738 60.5625 228.984 60.5625V62.5625ZM236.851 59.9807C238.93 58.2132 240.23 55.774 240.795 52.7461L238.83 52.3789C238.333 55.0385 237.226 57.0368 235.555 58.4568L236.851 59.9807ZM239.812 53.5625H250.828V51.5625H239.812V53.5625ZM249.832 52.4785C249.384 57.7961 247.263 62.0128 243.48 65.2045L244.77 66.733C248.987 63.1747 251.335 58.4539 251.825 52.6465L249.832 52.4785ZM243.481 65.204C239.726 68.3671 234.876 69.9844 228.844 69.9844V71.9844C235.249 71.9844 240.586 70.2579 244.769 66.7335L243.481 65.204ZM228.844 69.9844C221.759 69.9844 216.228 67.7689 212.135 63.4093L210.677 64.7782C215.209 69.6061 221.304 71.9844 228.844 71.9844V69.9844ZM212.138 63.4118C208.04 59.0174 205.938 52.973 205.938 45.1562H203.938C203.938 53.3395 206.147 59.9201 210.675 64.7757L212.138 63.4118ZM205.938 45.1562C205.938 37.4372 208.038 31.4208 212.14 26.992L210.673 25.633C206.149 30.5167 203.938 37.0628 203.938 45.1562H205.938ZM212.142 26.9896C216.238 22.5373 221.737 20.2812 228.75 20.2812V18.2812C221.263 18.2812 215.199 20.7127 210.67 25.6354L212.142 26.9896ZM228.75 20.2812C234.929 20.2812 239.83 22.0025 243.548 25.3665L244.89 23.8835C240.733 20.1225 235.321 18.2812 228.75 18.2812V20.2812ZM243.554 25.3721C247.325 28.727 249.397 32.9527 249.784 38.1062L251.778 37.9563C251.353 32.2973 249.05 27.5855 244.883 23.8779L243.554 25.3721ZM283.359 7.04688L284.024 7.79429L284.027 7.79171L283.359 7.04688ZM317.203 6.48438L316.559 7.24943L316.562 7.2517L317.203 6.48438ZM320.578 30.9531L319.732 30.4203L319.731 30.4224L320.578 30.9531ZM310.125 43.3281L310.828 44.0392L310.834 44.033L310.125 43.3281ZM293.391 59.875L292.688 59.1639L292.391 59.4575V59.875H293.391ZM293.391 60.1094H292.391V61.1094H293.391V60.1094ZM324.797 60.1094H325.797V59.1094H324.797V60.1094ZM324.797 70V71H325.797V70H324.797ZM277.266 70H276.266V71H277.266V70ZM277.266 61.8438L276.561 61.1346L276.266 61.4279V61.8438H277.266ZM302.156 37.0938L302.861 37.8029L302.867 37.7976L302.872 37.7923L302.156 37.0938ZM308.578 13.6094L307.92 14.3626L307.926 14.3671L308.578 13.6094ZM291.422 14.0312L290.734 13.305L290.73 13.3097L291.422 14.0312ZM287.953 22.5625V23.5625H288.953V22.5625H287.953ZM276.609 22.5625H275.609V23.5625H276.609V22.5625ZM277.609 22.4219C277.609 16.4451 279.746 11.5964 284.024 7.79428L282.695 6.29947C277.972 10.4973 275.609 15.8986 275.609 22.4219H277.609ZM284.027 7.79171C288.314 3.95054 293.814 2 300.609 2V0C293.405 0 287.404 2.08071 282.692 6.30204L284.027 7.79171ZM300.609 2C307.138 2 312.428 3.77173 316.559 7.24943L317.847 5.71932C313.291 1.88452 307.518 0 300.609 0V2ZM316.562 7.2517C320.719 10.726 322.766 15.0273 322.766 20.2188H324.766C324.766 14.4102 322.437 9.55529 317.844 5.71705L316.562 7.2517ZM322.766 20.2188C322.766 23.8009 321.762 27.1957 319.732 30.4203L321.424 31.4859C323.644 27.9605 324.766 24.1991 324.766 20.2188H322.766ZM319.731 30.4224C317.695 33.6731 314.271 37.7367 309.416 42.6233L310.834 44.033C315.729 39.1071 319.274 34.9206 321.426 31.4838L319.731 30.4224ZM309.422 42.617L292.688 59.1639L294.094 60.5861L310.828 44.0392L309.422 42.617ZM292.391 59.875V60.1094H294.391V59.875H292.391ZM293.391 61.1094H324.797V59.1094H293.391V61.1094ZM323.797 60.1094V70H325.797V60.1094H323.797ZM324.797 69H277.266V71H324.797V69ZM278.266 70V61.8438H276.266V70H278.266ZM277.971 62.5529L302.861 37.8029L301.451 36.3846L276.561 61.1346L277.971 62.5529ZM302.872 37.7923C306.723 33.8469 309.386 30.7003 310.793 28.3774L309.082 27.3413C307.801 29.4559 305.277 32.4656 301.441 36.3952L302.872 37.7923ZM310.793 28.3774C312.229 26.0065 312.953 23.453 312.953 20.7344H310.953C310.953 23.0783 310.334 25.2748 309.082 27.3413L310.793 28.3774ZM312.953 20.7344C312.953 17.6128 311.687 14.967 309.231 12.8516L307.926 14.3671C309.969 16.1267 310.953 18.231 310.953 20.7344H312.953ZM309.236 12.8561C306.81 10.738 303.785 9.70312 300.234 9.70312V11.7031C303.371 11.7031 305.908 12.6057 307.92 14.3626L309.236 12.8561ZM300.234 9.70312C296.474 9.70312 293.282 10.8932 290.734 13.305L292.109 14.7575C294.249 12.7318 296.933 11.7031 300.234 11.7031V9.70312ZM290.73 13.3097C288.211 15.726 286.953 18.7721 286.953 22.375H288.953C288.953 19.2904 290.008 16.774 292.114 14.7528L290.73 13.3097ZM286.953 22.375V22.5625H288.953V22.375H286.953ZM287.953 21.5625H276.609V23.5625H287.953V21.5625ZM277.609 22.5625V22.4219H275.609V22.5625H277.609ZM354.047 2.35938V1.35938H353.047V2.35938H354.047ZM396.797 8.64062L396.092 9.35036L396.095 9.35299L396.797 8.64062ZM396.609 41.3594L395.915 40.6394L395.913 40.6419L396.609 41.3594ZM366.141 47.6406V46.6406H365.141V47.6406H366.141ZM366.141 70V71H367.141V70H366.141ZM354.047 70H353.047V71H354.047V70ZM366.141 12.25V11.25H365.141V12.25H366.141ZM366.141 37.8906H365.141V38.8906H366.141V37.8906ZM387.234 15.5781L386.552 16.3089L386.556 16.3133L387.234 15.5781ZM354.047 3.35938H380.344V1.35938H354.047V3.35938ZM380.344 3.35938C386.869 3.35938 392.087 5.37451 396.092 9.35036L397.501 7.93089C393.069 3.53174 387.319 1.35938 380.344 1.35938V3.35938ZM396.095 9.35299C400.096 13.2945 402.125 18.477 402.125 25H404.125C404.125 18.023 401.935 12.2993 397.499 7.92826L396.095 9.35299ZM402.125 25C402.125 31.4811 400.04 36.6628 395.915 40.6394L397.303 42.0793C401.866 37.681 404.125 31.9564 404.125 25H402.125ZM395.913 40.6419C391.814 44.6219 386.483 46.6406 379.828 46.6406V48.6406C386.923 48.6406 392.78 46.4718 397.306 42.0768L395.913 40.6419ZM379.828 46.6406H366.141V48.6406H379.828V46.6406ZM365.141 47.6406V70H367.141V47.6406H365.141ZM366.141 69H354.047V71H366.141V69ZM355.047 70V2.35938H353.047V70H355.047ZM365.141 12.25V37.8906H367.141V12.25H365.141ZM366.141 38.8906H377.109V36.8906H366.141V38.8906ZM377.109 38.8906C381.624 38.8906 385.273 37.7186 387.917 35.246L386.551 33.7852C384.383 35.8126 381.282 36.8906 377.109 36.8906V38.8906ZM387.917 35.246C390.573 32.7629 391.844 29.2987 391.844 25H389.844C389.844 28.8888 388.708 31.7683 386.551 33.7852L387.917 35.246ZM391.844 25C391.844 20.7305 390.572 17.295 387.912 14.843L386.556 16.3133C388.71 18.2987 389.844 21.1445 389.844 25H391.844ZM387.917 14.8474C385.302 12.4041 381.666 11.25 377.156 11.25V13.25C381.334 13.25 384.417 14.3146 386.552 16.3089L387.917 14.8474ZM377.156 11.25H366.141V13.25H377.156V11.25ZM410.812 70H409.812V71H410.812V70ZM410.812 20.3125V19.3125H409.812V20.3125H410.812ZM422.016 20.3125H423.016V19.3125H422.016V20.3125ZM422.016 28.9844H421.016V29.9844H422.016V28.9844ZM422.25 28.9844V29.9844H423.01L423.213 29.2525L422.25 28.9844ZM426.609 21.9531L425.989 21.1688L425.983 21.1734L426.609 21.9531ZM437.812 19.9375H438.812V19.1353L438.029 18.9613L437.812 19.9375ZM437.812 30.4844L437.459 31.4197L438.812 31.9319V30.4844H437.812ZM422.484 70V71H423.484V70H422.484ZM411.812 70V20.3125H409.812V70H411.812ZM410.812 21.3125H422.016V19.3125H410.812V21.3125ZM421.016 20.3125V28.9844H423.016V20.3125H421.016ZM422.016 29.9844H422.25V27.9844H422.016V29.9844ZM423.213 29.2525C424.012 26.3837 425.365 24.2347 427.236 22.7328L425.983 21.1734C423.728 22.9841 422.176 25.5226 421.287 28.7162L423.213 29.2525ZM427.23 22.7374C429.129 21.2351 431.42 20.4688 434.156 20.4688V18.4688C431.018 18.4688 428.277 19.3587 425.989 21.1688L427.23 22.7374ZM434.156 20.4688C435.092 20.4688 436.235 20.6113 437.596 20.9137L438.029 18.9613C436.578 18.6387 435.283 18.4688 434.156 18.4688V20.4688ZM436.812 19.9375V30.4844H438.812V19.9375H436.812ZM438.166 29.5491C436.849 29.0506 435.134 28.8281 433.078 28.8281V30.8281C435.023 30.8281 436.464 31.0432 437.459 31.4197L438.166 29.5491ZM433.078 28.8281C429.551 28.8281 426.67 29.9013 424.567 32.1442L426.026 33.5121C427.674 31.755 429.98 30.8281 433.078 30.8281V28.8281ZM424.567 32.1442C422.474 34.3767 421.484 37.3971 421.484 41.0781H423.484C423.484 37.7592 424.369 35.2796 426.026 33.5121L424.567 32.1442ZM421.484 41.0781V70H423.484V41.0781H421.484ZM422.484 69H410.812V71H422.484V69ZM481.453 64.0938L482.18 64.7808L482.182 64.7783L481.453 64.0938ZM446.391 64.0938L445.662 64.7784L445.664 64.7808L446.391 64.0938ZM446.438 26.2656L447.164 26.9528L447.166 26.9504L446.438 26.2656ZM481.406 26.2656L480.675 26.9478L480.68 26.9528L481.406 26.2656ZM472.828 32.9688L472.026 33.566L472.029 33.5701L472.828 32.9688ZM455.016 32.9688L454.218 32.366L454.217 32.3674L455.016 32.9688ZM480.727 63.4067C476.603 67.768 471.039 69.9844 463.922 69.9844V71.9844C471.492 71.9844 477.616 69.607 482.18 64.7808L480.727 63.4067ZM463.922 69.9844C456.805 69.9844 451.241 67.768 447.117 63.4067L445.664 64.7808C450.228 69.607 456.352 71.9844 463.922 71.9844V69.9844ZM447.12 63.4092C442.992 59.0145 440.875 52.9711 440.875 45.1562H438.875C438.875 53.3414 441.102 59.923 445.662 64.7783L447.12 63.4092ZM440.875 45.1562C440.875 37.3758 443.006 31.3484 447.164 26.9528L445.711 25.5784C441.119 30.4329 438.875 36.9992 438.875 45.1562H440.875ZM447.166 26.9504C451.325 22.5242 456.874 20.2812 463.922 20.2812V18.2812C456.407 18.2812 450.3 20.6946 445.709 25.5809L447.166 26.9504ZM463.922 20.2812C471.002 20.2812 476.549 22.5251 480.675 26.9478L482.137 25.5835C477.576 20.6937 471.467 18.2812 463.922 18.2812V20.2812ZM480.68 26.9528C484.838 31.3484 486.969 37.3758 486.969 45.1562H488.969C488.969 36.9992 486.725 30.4329 482.133 25.5784L480.68 26.9528ZM486.969 45.1562C486.969 52.9711 484.852 59.0145 480.724 63.4092L482.182 64.7783C486.742 59.923 488.969 53.3414 488.969 45.1562H486.969ZM454.217 57.992C456.6 61.1582 459.869 62.75 463.922 62.75V60.75C460.475 60.75 457.806 59.4355 455.815 56.7893L454.217 57.992ZM463.922 62.75C467.975 62.75 471.244 61.1582 473.627 57.992L472.029 56.7893C470.037 59.4355 467.369 60.75 463.922 60.75V62.75ZM473.627 57.992C475.992 54.8506 477.109 50.5304 477.109 45.1562H475.109C475.109 50.2821 474.04 54.1182 472.029 56.7893L473.627 57.992ZM477.109 45.1562C477.109 39.8118 475.991 35.5079 473.627 32.3674L472.029 33.5701C474.04 36.2421 475.109 40.0632 475.109 45.1562H477.109ZM473.63 32.3715C471.249 29.1735 467.979 27.5625 463.922 27.5625V29.5625C467.365 29.5625 470.033 30.889 472.026 33.566L473.63 32.3715ZM463.922 27.5625C459.893 27.5625 456.628 29.1753 454.218 32.366L455.814 33.5715C457.841 30.8872 460.513 29.5625 463.922 29.5625V27.5625ZM454.217 32.3674C451.853 35.5079 450.734 39.8118 450.734 45.1562H452.734C452.734 40.0632 453.803 36.2421 455.815 33.5701L454.217 32.3674ZM450.734 45.1562C450.734 50.5304 451.852 54.8506 454.217 57.992L455.815 56.7893C453.804 54.1182 452.734 50.2821 452.734 45.1562H450.734Z" fill="black"/>
</g>
<defs>
<filter id="filter0_d" x="0.953125" y="0" width="492.016" height="79.9844" filterUnits="userSpaceOnUse" color-interpolation-filters="sRGB">
<feFlood flood-opacity="0" result="BackgroundImageFix"/>
<feColorMatrix in="SourceAlpha" type="matrix" values="0 0 0 0 0 0 0 0 0 0 0 0 0 0 0 0 0 0 127 0"/>
<feOffset dy="4"/>
<feGaussianBlur stdDeviation="2"/>
<feColorMatrix type="matrix" values="0 0 0 0 0 0 0 0 0 0 0 0 0 0 0 0 0 0 0.25 0"/>
<feBlend mode="normal" in2="BackgroundImageFix" result="effect1_dropShadow"/>
<feBlend mode="normal" in="SourceGraphic" in2="effect1_dropShadow" result="shape"/>
</filter>
</defs>
</svg>
