<svg xmlns="http://www.w3.org/2000/svg" viewBox="0 0 40 40" width="40" height="40">
	<defs>
		<clipPath clipPathUnits="userSpaceOnUse" id="cp1">
			<path d="M-753 -668L613 -668L613 100L-753 100Z" />
		</clipPath>
	</defs>
	<style>
		tspan { white-space:pre }
		.shp0 { opacity: 1;fill: #ffffff } 
	</style>
	<g id="1" clip-path="url(#cp1)">
		<g id="instagram 2">
			<path id="Vector" fill-rule="evenodd" class="shp0" d="M23.83 20C23.83 22.11 22.11 23.83 20 23.83C17.89 23.83 16.17 22.11 16.17 20C16.17 17.89 17.89 16.17 20 16.17C22.11 16.17 23.83 17.89 23.83 20ZM28.95 13.23C29.11 13.63 29.3 14.24 29.35 15.36C29.4 16.57 29.41 16.93 29.41 20C29.41 23.07 29.4 23.43 29.35 24.64C29.3 25.76 29.11 26.37 28.95 26.77C28.57 27.77 27.77 28.57 26.77 28.95C26.37 29.11 25.76 29.3 24.64 29.35C23.43 29.4 23.07 29.42 20 29.42C16.93 29.42 16.57 29.4 15.36 29.35C14.24 29.3 13.63 29.11 13.23 28.95C12.73 28.77 12.28 28.48 11.91 28.09C11.52 27.72 11.23 27.27 11.05 26.77C10.89 26.37 10.7 25.76 10.65 24.64C10.6 23.43 10.58 23.07 10.58 20C10.58 16.93 10.6 16.57 10.65 15.36C10.7 14.24 10.89 13.63 11.05 13.23C11.23 12.73 11.52 12.28 11.91 11.91C12.28 11.52 12.73 11.23 13.23 11.05C13.63 10.89 14.24 10.7 15.36 10.65C16.57 10.6 16.93 10.58 20 10.58C23.07 10.58 23.43 10.6 24.64 10.65C25.76 10.7 26.37 10.89 26.77 11.05C27.27 11.23 27.72 11.52 28.09 11.91C28.47 12.28 28.77 12.73 28.95 13.23ZM25.9 20C25.9 16.74 23.26 14.1 20 14.1C16.74 14.1 14.1 16.74 14.1 20C14.1 23.26 16.74 25.9 20 25.9C23.26 25.9 25.9 23.26 25.9 20ZM27.51 13.87C27.51 13.11 26.89 12.49 26.13 12.49C25.37 12.49 24.75 13.11 24.75 13.87C24.75 14.63 25.37 15.25 26.13 15.25C26.89 15.25 27.51 14.63 27.51 13.87ZM40 20C40 31.04 31.04 40 20 40C8.96 40 0 31.04 0 20C0 8.96 8.96 0 20 0C31.04 0 40 8.96 40 20ZM31.42 24.73C31.47 23.51 31.48 23.12 31.48 20C31.48 16.88 31.47 16.49 31.42 15.27C31.36 14.04 31.17 13.21 30.88 12.48C30.59 11.71 30.14 11.02 29.56 10.44C28.98 9.86 28.29 9.41 27.52 9.12C26.79 8.83 25.96 8.64 24.73 8.58C23.51 8.53 23.12 8.52 20 8.52C16.88 8.52 16.49 8.53 15.27 8.58C14.04 8.64 13.21 8.83 12.48 9.12C11.71 9.41 11.02 9.86 10.44 10.44C9.86 11.02 9.41 11.71 9.12 12.48C8.83 13.21 8.64 14.04 8.58 15.27C8.53 16.49 8.52 16.88 8.52 20C8.52 23.12 8.53 23.51 8.59 24.73C8.64 25.96 8.84 26.79 9.12 27.52C9.41 28.29 9.86 28.98 10.44 29.56C11.02 30.14 11.71 30.59 12.48 30.88C13.21 31.16 14.04 31.36 15.27 31.42C16.49 31.47 16.88 31.48 20 31.48C23.12 31.48 23.51 31.47 24.74 31.42C25.96 31.36 26.79 31.16 27.52 30.88C29.07 30.28 30.28 29.06 30.88 27.52C31.17 26.79 31.36 25.96 31.42 24.73Z" />
		</g>
	</g>
</svg>